<?xml version="1.0" standalone="no"?>
<!DOCTYPE svg PUBLIC "-//W3C//DTD SVG 20010904//EN"
 "http://www.w3.org/TR/2001/REC-SVG-20010904/DTD/svg10.dtd">
<svg
    fill="#af3b00"
    version="1.0"
    xmlns="http://www.w3.org/2000/svg"
    viewBox="0 0 531.000000 393.000000"
    preserveAspectRatio="xMidYMid meet">
    <g
        transform="translate(0.000000,393.000000) scale(0.100000,-0.100000)"
        stroke="none">
        <path
            d="M2047 3613 c-69 -117 -250 -413 -282 -463 -13 -19 -37 -57 -53 -85
            -16 -27 -67 -111 -112 -185 -46 -74 -108 -175 -138 -225 -30 -49 -96 -155
            -147 -235 -51 -80 -148 -235 -215 -345 -68 -110 -141 -229 -163 -265 -78 -127
            -115 -187 -197 -320 -84 -137 -108 -175 -215 -345 -33 -52 -73 -118 -90 -146
            -16 -28 -51 -83 -76 -123 -79 -124 -131 -215 -133 -233 -1 -13 5 -17 21 -15
            11 2 158 50 325 108 166 58 383 132 481 165 98 32 217 74 265 93 114 44 230
            77 237 66 8 -13 -30 -86 -139 -263 -53 -87 -96 -162 -96 -168 0 -18 40 -8 221
            57 663 237 1070 374 1112 374 33 0 225 -64 732 -242 494 -174 576 -201 586
            -191 5 5 -39 88 -105 198 -63 105 -117 200 -121 213 -5 18 -3 22 18 22 22 0
            182 -52 412 -134 55 -19 249 -87 430 -150 182 -63 365 -127 407 -142 43 -16
            80 -25 84 -21 7 7 -40 88 -142 247 -33 52 -89 142 -124 200 -78 130 -200 328
            -295 480 -40 63 -97 156 -127 205 -30 50 -76 124 -102 165 -25 41 -68 111 -95
            155 -196 320 -251 409 -365 593 -70 114 -144 231 -163 261 -19 30 -71 113
            -115 185 -44 72 -103 167 -130 211 -27 44 -78 127 -113 185 -85 137 -102 160
            -123 160 -18 0 -67 -72 -185 -270 -139 -233 -228 -376 -312 -497 -47 -68 -73
            -71 -108 -10 -30 53 -170 278 -207 332 -14 22 -39 63 -55 90 -15 28 -42 73
            -60 100 -140 219 -171 265 -182 265 -6 0 -27 -26 -46 -57z m79 -1030 c29 -33
            164 -272 170 -302 5 -22 -3 -46 -27 -93 -30 -56 -173 -293 -234 -388 -12 -19
            -49 -80 -82 -135 -200 -334 -286 -469 -318 -495 -15 -13 -23 -12 -64 11 -249
            136 -241 131 -241 159 0 16 43 97 109 206 60 98 148 244 197 324 48 80 116
            189 151 243 34 53 63 99 63 102 0 10 200 342 219 363 24 27 36 28 57 5z m1152
            -78 c25 -38 97 -155 160 -260 63 -104 124 -206 137 -225 21 -33 141 -235 194
            -324 13 -23 32 -53 42 -68 11 -14 19 -29 19 -33 0 -3 14 -26 30 -50 17 -24 30
            -46 30 -48 0 -3 18 -35 40 -71 62 -102 64 -99 -104 -195 -113 -64 -144 -76
            -161 -64 -11 8 -55 75 -125 189 -19 32 -56 90 -82 131 -26 40 -57 90 -68 110
            -11 21 -45 76 -74 123 -30 47 -66 103 -79 125 -13 22 -48 78 -77 125 -134 216
            -160 263 -160 287 0 34 128 258 183 320 26 29 35 22 95 -72z m-496 -996 c48
            -79 87 -154 88 -166 0 -12 -10 -29 -22 -38 -57 -40 -175 -105 -192 -105 -19 0
            -166 80 -198 108 -10 8 -18 27 -18 42 0 31 146 272 186 308 24 21 28 22 48 9
            11 -8 60 -79 108 -158z"
        />
    </g>
</svg>
