<?xml version="1.0" standalone="no"?>
<!DOCTYPE svg PUBLIC "-//W3C//DTD SVG 20010904//EN"
 "http://www.w3.org/TR/2001/REC-SVG-20010904/DTD/svg10.dtd">
<svg version="1.0" xmlns="http://www.w3.org/2000/svg"
 width="713.000000pt" height="692.000000pt" viewBox="0 0 713.000000 692.000000"
 preserveAspectRatio="xMidYMid meet">

<g transform="translate(0.000000,692.000000) scale(0.100000,-0.100000)"
fill="#000000" stroke="none">
<path d="M0 3460 l0 -3460 3565 0 3565 0 0 3460 0 3460 -3565 0 -3565 0 0
-3460z m3176 3302 c65 -54 158 -129 205 -167 47 -39 181 -149 299 -245 117
-96 252 -206 299 -244 47 -38 124 -101 171 -140 159 -132 180 -148 238 -171
31 -13 102 -42 157 -65 55 -23 141 -59 190 -80 50 -21 189 -79 310 -130 258
-108 344 -144 560 -234 144 -60 217 -91 410 -173 85 -36 93 -46 64 -73 -13
-12 -64 -46 -114 -74 -49 -29 -144 -85 -211 -125 -81 -48 -132 -71 -155 -72
-19 -1 -26 -3 -16 -6 15 -4 17 -20 17 -144 0 -140 0 -140 -27 -166 -27 -25
-190 -123 -205 -123 -5 0 -8 69 -8 152 0 136 -2 150 -15 132 -8 -12 -47 -41
-87 -64 -40 -24 -104 -62 -143 -85 -210 -125 -210 -125 -254 -125 -23 0 -52 5
-64 11 -21 10 -21 10 -3 -5 12 -10 39 -16 67 -16 50 0 70 11 385 201 45 27 84
49 87 49 4 0 8 -57 9 -127 3 -114 5 -128 21 -131 20 -4 202 100 230 131 14 16
17 40 17 163 0 110 3 144 13 144 7 0 64 31 127 68 244 144 327 192 333 192 4
0 7 -126 7 -280 l0 -280 -37 -24 c-21 -13 -103 -62 -183 -108 -163 -96 -575
-340 -780 -461 -196 -117 -200 -119 -240 -114 -20 3 -103 45 -192 97 l-158 93
0 136 c0 98 -3 132 -11 124 -8 -8 -11 -106 -10 -317 2 -338 1 -343 -62 -404
-18 -17 -129 -88 -247 -158 -492 -291 -481 -285 -608 -310 -87 -17 -173 -18
-260 -4 -119 20 -147 34 -672 342 -146 85 -582 341 -970 567 -388 227 -736
431 -773 454 -57 33 -71 38 -79 26 -8 -11 -9 -11 -5 3 4 12 -17 30 -88 72
-102 61 -171 130 -180 180 -4 17 -5 182 -3 367 l3 336 37 46 c39 46 55 57 378
247 96 56 195 115 220 130 135 84 220 114 357 125 68 6 189 -4 256 -20 22 -6
22 -5 19 104 l-3 110 58 -31 c32 -17 54 -27 50 -22 -4 4 -29 20 -55 34 -31 16
-48 33 -50 47 -4 25 -6 24 253 177 234 138 205 137 435 8 l55 -31 -3 125 -3
126 70 -57 c39 -31 71 -54 71 -51 0 3 -31 30 -70 61 -101 81 -99 86 53 176 67
40 169 100 227 135 67 40 116 63 136 64 24 0 55 -21 150 -98z m-2669 -1944
c-1 -95 -3 -20 -3 167 0 187 2 265 3 173 2 -92 2 -245 0 -340z m5610 210 c-2
-13 -4 -5 -4 17 -1 22 1 32 4 23 2 -10 2 -28 0 -40z m0 -435 c-1 -76 -3 -14
-3 137 0 151 2 213 3 138 2 -76 2 -200 0 -275z m-5364 -155 c30 -22 35 -43 11
-52 -22 -9 -51 10 -69 44 -29 56 -15 58 58 8z m-36 -70 c-2 -13 -7 -32 -11
-43 -4 -11 1 -5 10 13 17 31 34 42 34 22 0 -17 -72 -190 -81 -196 -15 -9 -10
22 11 78 11 28 18 53 16 56 -2 2 -12 -18 -22 -45 -9 -26 -20 -52 -24 -56 -4
-5 -5 -28 -2 -53 3 -27 0 -49 -8 -59 -17 -21 -34 -19 -26 3 4 10 -1 8 -13 -7
-24 -31 -47 -22 -67 25 -26 62 3 126 41 94 13 -11 14 -10 9 4 -5 14 -2 17 16
14 22 -3 37 26 83 155 10 27 40 22 34 -5z m164 -12 c1 -6 1 -15 0 -20 -1 -5 4
-4 11 2 9 7 19 7 28 2 12 -8 13 -13 3 -30 -9 -13 -13 -60 -13 -135 l0 -116
-22 12 c-12 7 -36 12 -53 13 l-30 1 0 136 c0 153 8 176 51 157 13 -6 25 -16
25 -22z m397 -374 c138 -129 252 -238 252 -241 0 -3 -28 -22 -62 -41 -34 -19
-98 -56 -142 -83 -45 -26 -85 -46 -90 -44 -15 5 -155 206 -181 262 -14 28 -49
84 -79 125 l-55 75 0 126 c-1 69 2 129 6 132 7 8 7 8 351 -311z m-711 252 c-3
-3 -12 -4 -19 -1 -8 3 -5 6 6 6 11 1 17 -2 13 -5z m5473 -29 c0 -8 -15 -22
-32 -31 -87 -45 -250 -149 -263 -167 -11 -16 -15 -53 -15 -150 0 -114 -2 -128
-15 -117 -24 20 -22 260 3 289 18 23 288 189 310 190 6 1 12 -6 12 -14z
m-5310 -21 c13 -33 13 -74 0 -74 -13 0 -30 43 -30 76 0 32 18 31 30 -2z m-223
-46 c-2 -13 -4 -5 -4 17 -1 22 1 32 4 23 2 -10 2 -28 0 -40z m5563 -87 c0
-152 1 -150 -64 -190 -19 -12 -49 -44 -65 -71 -33 -54 -37 -56 -74 -39 -20 9
-32 7 -66 -10 -23 -12 -46 -19 -51 -16 -6 4 -10 63 -10 136 0 110 3 132 18
147 23 23 288 181 305 182 4 0 7 -63 7 -139z m-185 109 c-3 -5 -12 -10 -18
-10 -7 0 -6 4 3 10 19 12 23 12 15 0z m-5176 -44 c24 -24 29 -36 20 -41 -8 -5
-23 4 -41 24 -50 56 -32 72 21 17z m4840 -498 c1 -271 3 -493 4 -494 1 -1 45
24 97 56 228 136 386 229 403 235 15 6 17 0 17 -48 l0 -56 -192 -114 c-106
-63 -223 -132 -260 -153 l-68 -39 0 -512 0 -513 -41 -25 c-22 -15 -47 -29 -55
-32 -12 -4 -14 131 -14 973 0 539 3 1022 6 1075 l7 96 41 21 c23 11 44 21 47
21 3 1 7 -221 8 -491z m-4839 440 c0 -4 -5 -10 -10 -13 -15 -9 -40 14 -40 37
0 18 1 18 25 1 13 -10 25 -21 25 -25z m4906 -149 l0 -174 -5 140 c-6 136 -7
140 -28 143 -17 2 -23 10 -23 27 0 24 26 47 45 41 6 -1 10 -70 11 -177z
m-4876 126 c-24 -25 -48 -45 -52 -45 -17 0 23 60 50 74 47 26 48 17 2 -29z
m204 -59 c42 -62 57 -90 48 -94 -10 -3 -7 -8 9 -16 12 -6 27 -19 33 -28 23
-37 -56 -128 -111 -128 -11 0 -28 9 -38 20 -15 17 -16 24 -5 50 7 17 26 42 42
55 16 14 26 25 21 25 -15 0 -52 -39 -69 -73 -9 -18 -18 -34 -20 -36 -5 -6
-154 130 -165 151 -15 28 5 78 49 120 45 43 56 47 106 45 37 -2 42 -6 100 -91z
m4486 -996 c0 -583 -4 -1060 -9 -1060 -4 0 -20 11 -34 24 -24 23 -26 29 -25
125 0 75 -3 106 -15 125 -14 21 -60 78 -182 223 -50 59 -65 102 -65 182 l0 70
113 67 c161 95 157 90 157 193 0 78 -2 87 -26 112 l-26 27 -3 256 -3 255 -32
63 c-18 35 -40 74 -49 88 -29 42 -85 149 -81 153 14 11 266 157 273 157 4 0 7
-477 7 -1060z m-4763 998 c-3 -7 -5 -2 -5 12 0 14 2 19 5 13 2 -7 2 -19 0 -25z
m4921 -120 c-2 -94 -7 -133 -15 -136 -10 -3 -13 27 -13 126 0 71 3 132 7 135
19 20 23 -5 21 -125z m-369 -138 c45 -77 81 -142 81 -145 0 -3 -4 -5 -9 -5
-12 0 -171 277 -163 284 3 3 6 6 8 6 1 0 38 -63 83 -140z m-3456 123 c4 -3
-32 -30 -79 -59 -143 -88 -107 -75 59 21 l48 27 54 -33 c30 -18 55 -38 55 -44
0 -6 -12 -30 -27 -54 -23 -35 -55 -59 -168 -127 -172 -103 -176 -105 -150 -97
11 4 60 31 110 60 77 45 125 64 125 49 0 -2 -16 -14 -35 -26 -38 -23 -44 -40
-20 -60 14 -12 14 -15 -1 -31 -15 -17 -15 -20 0 -44 9 -14 12 -25 7 -25 -5 0
-12 -8 -16 -19 -6 -19 -125 -89 -125 -74 0 4 -5 1 -10 -8 -5 -9 -38 -33 -73
-53 -100 -59 -123 -121 -67 -186 35 -42 37 -53 8 -74 -22 -16 -21 -16 9 -1 60
28 54 -24 -6 -55 -21 -10 -51 -32 -69 -48 -29 -27 -31 -34 -28 -86 1 -31 5
-59 9 -62 4 -4 3 -12 -1 -18 -4 -6 -7 -21 -7 -34 -1 -18 12 -31 63 -59 l63
-35 57 35 57 36 0 58 c1 32 -3 64 -9 71 -5 7 -6 15 -3 18 14 14 56 -9 109 -61
70 -69 95 -71 187 -16 74 43 297 175 408 241 76 44 113 88 113 133 0 18 -27
60 -85 132 -46 58 -82 105 -79 105 14 0 407 -237 411 -248 11 -27 -8 -61 -49
-84 -52 -29 -67 -51 -51 -77 8 -13 8 -22 1 -29 -17 -17 2 -51 40 -71 20 -11
82 -47 137 -80 96 -58 101 -59 124 -44 22 14 27 14 55 -2 31 -18 31 -18 14 1
-17 19 -16 25 12 125 16 57 32 109 35 116 3 9 24 1 67 -23 35 -20 66 -39 71
-43 10 -9 -30 -141 -49 -160 -23 -25 -27 -5 -10 52 9 30 16 62 16 70 0 14 -67
64 -74 56 -2 -2 -13 -38 -24 -79 -19 -69 -20 -76 -5 -87 21 -16 37 -17 27 -2
-4 7 -1 10 7 7 8 -3 14 -15 14 -29 0 -20 -5 -24 -32 -24 -23 0 -29 -3 -21 -12
7 -8 1 -16 -20 -27 -16 -8 -32 -22 -36 -31 -3 -9 -6 -63 -7 -121 0 -57 -2
-104 -4 -104 -4 0 -72 39 -237 136 -263 154 -248 148 -343 148 -94 1 -114 -7
-325 -134 -206 -125 -224 -133 -310 -138 -97 -5 -124 5 -302 110 -79 46 -250
147 -382 224 -196 114 -241 145 -254 171 -18 38 -10 53 15 31 10 -8 25 -18 33
-22 8 -5 1 4 -17 18 -39 33 -51 77 -29 111 26 40 94 78 124 70 22 -5 24 -4 13
9 -8 9 -19 16 -26 16 -7 0 -21 12 -31 28 -17 24 -19 53 -22 301 -2 150 0 281
3 290 5 13 11 11 32 -14 14 -16 36 -34 47 -40 20 -10 21 -20 26 -189 4 -148 8
-180 20 -183 13 -4 13 -3 0 6 -20 15 1 33 132 106 57 32 126 72 153 90 28 17
118 71 200 119 83 49 191 112 240 141 97 58 98 58 108 48z m3366 -30 c11 -21
49 -87 85 -148 65 -108 66 -111 66 -182 0 -40 -2 -73 -4 -73 -9 0 -115 58
-246 136 -74 44 -143 83 -152 87 -14 5 -18 18 -18 55 0 46 2 50 28 55 16 3 67
29 113 56 46 28 90 51 96 51 7 0 21 -17 32 -37z m-451 -59 c30 -35 21 -41 -21
-15 -40 25 -81 27 -121 6 -34 -18 -48 -11 -20 10 53 41 126 40 162 -1z m172
-64 c0 -27 -4 -50 -10 -50 -11 0 -14 83 -3 93 12 12 13 8 13 -43z m954 -82
c136 -78 151 -90 143 -112 -3 -8 -42 -36 -87 -62 -44 -26 -80 -48 -80 -51 0
-6 83 39 129 70 24 16 42 23 39 16 -5 -15 -330 -212 -369 -224 -19 -5 -18 -3
9 14 35 22 44 38 13 21 -37 -19 -41 -12 -41 73 l0 83 104 63 c57 34 107 70
111 78 7 19 -30 53 -88 79 -39 18 -41 18 -109 -11 -33 -14 -19 16 15 30 46 21
75 11 211 -67z m-4789 -51 l69 -79 -23 -17 c-12 -9 -49 -32 -82 -50 l-59 -32
0 142 c0 119 2 141 13 129 7 -8 44 -50 82 -93z m911 25 c2 -12 16 -28 29 -34
14 -6 25 -14 25 -18 0 -9 -122 -80 -137 -80 -11 0 -61 28 -102 57 -2 2 -2 6 2
9 3 3 31 -8 61 -26 31 -17 56 -29 56 -26 0 3 -25 20 -55 37 -30 17 -55 34 -55
38 0 4 34 25 76 47 42 21 79 43 82 49 4 5 8 1 10 -10 1 -11 5 -30 8 -43z m239
19 c3 -5 2 -12 -3 -15 -5 -3 -9 1 -9 9 0 17 3 19 12 6z m2404 -50 c-12 -35
-49 -72 -49 -50 0 19 37 79 49 79 6 0 6 -11 0 -29z m-2399 -11 c0 -5 -13 -16
-28 -24 -26 -13 -31 -13 -45 1 -15 15 -14 18 11 33 27 17 62 11 62 -10z m3127
-113 c-2 -23 -3 -1 -3 48 0 50 1 68 3 42 2 -26 2 -67 0 -90z m-3033 117 c13
-5 16 -23 16 -90 0 -71 3 -87 20 -104 26 -26 62 -40 101 -40 40 0 106 35 114
60 6 20 6 20 48 -1 23 -12 68 -37 100 -57 l57 -35 0 -68 0 -68 -34 -6 c-37 -7
-51 -1 -201 90 -49 30 -115 68 -145 84 -30 16 -74 43 -97 59 -39 29 -41 33
-36 71 4 26 2 41 -5 41 -13 0 11 49 30 61 16 10 13 10 32 3z m-94 -44 c-24
-19 -40 -25 -40 -15 0 5 51 34 60 34 3 0 -6 -8 -20 -19z m3855 -10 c3 -6 -1
-7 -9 -4 -18 7 -21 14 -7 14 6 0 13 -4 16 -10z m2 -31 l35 -22 -49 -30 c-26
-17 -73 -45 -103 -62 -30 -18 -92 -54 -138 -81 -172 -101 -194 -114 -204 -114
-5 0 -8 15 -6 33 3 30 13 38 183 138 99 58 191 117 205 131 32 32 35 33 77 7z
m-4224 -7 c35 -24 24 -36 -15 -16 -17 9 -32 13 -36 10 -3 -3 -1 -6 4 -6 6 0
19 -7 30 -15 15 -11 16 -14 3 -15 -26 0 -51 24 -43 43 8 22 22 21 57 -1z m367
8 c0 -5 -4 -10 -10 -10 -5 0 -10 5 -10 10 0 6 5 10 10 10 6 0 10 -4 10 -10z
m2751 -16 c71 -29 73 -91 4 -120 -90 -37 -210 -2 -210 61 0 25 7 33 45 53 52
26 104 28 161 6z m309 -24 c12 -6 17 -20 16 -41 -2 -38 -37 -56 -78 -40 -21 8
-25 16 -24 41 2 45 42 64 86 40z m-862 -41 l-5 -24 -10 25 c-12 28 -6 47 9 32
5 -5 8 -20 6 -33z m-67 -146 c5 -455 3 -1173 -2 -1173 -11 0 -32 49 -26 63 3
8 -5 25 -19 38 l-24 22 0 226 0 225 35 32 c33 30 35 36 35 93 0 73 -16 115
-59 155 l-31 30 0 193 0 193 38 24 c20 14 40 25 45 25 4 1 8 -65 8 -146z
m-101 -17 c0 -50 -4 -96 -9 -101 -6 -6 -12 -37 -14 -70 l-3 -60 -2 65 c-2 42
-8 72 -19 85 -13 16 -15 17 -10 3 4 -12 1 -18 -9 -18 -12 0 -15 7 -12 25 4 17
-3 32 -23 51 -16 15 -29 33 -29 39 0 14 111 85 122 79 5 -3 8 -47 8 -98z
m-1382 5 l63 -38 -65 -17 c-36 -9 -68 -16 -71 -16 -3 0 -5 25 -5 55 0 30 3 55
8 55 4 -1 35 -18 70 -39z m1236 -6 c-4 -8 -10 -15 -14 -15 -5 0 -17 -3 -27 -6
-10 -3 -4 3 12 14 37 25 36 25 29 7z m1916 -15 c-8 -5 -64 -38 -125 -72 -62
-36 -132 -85 -161 -114 -74 -74 -76 -85 -72 -536 3 -358 2 -376 -15 -366 -17
8 -17 35 -15 428 3 401 4 420 23 445 21 28 339 223 365 224 13 1 13 0 0 -9z
m80 -29 c15 -29 14 -787 -2 -832 -6 -19 -20 -46 -30 -62 -21 -30 -311 -207
-340 -207 -10 0 -25 11 -33 24 -14 21 -15 74 -13 422 l3 399 30 48 c24 38 49
59 125 104 52 31 120 71 150 90 62 38 95 42 110 14z m-2010 -16 c13 -14 21
-25 18 -25 -2 0 -15 11 -28 25 -13 14 -21 25 -18 25 2 0 15 -11 28 -25z m1148
-50 c-7 -7 -169 -105 -203 -122 -61 -31 -2 13 94 71 80 47 129 70 109 51z
m-1071 -22 c-8 -8 13 -34 22 -28 4 2 8 -3 8 -11 0 -10 -9 -6 -29 13 -33 31
-33 33 -11 33 9 0 13 -3 10 -7z m1223 -70 c0 -12 -45 -44 -137 -98 -75 -44
-180 -106 -232 -137 -138 -83 -139 -83 -345 40 l-110 65 31 15 c29 14 34 13
99 -24 38 -21 84 -49 103 -61 25 -17 48 -23 91 -23 88 0 108 9 380 175 58 36
108 65 113 65 4 0 7 -8 7 -17z m-2110 -97 c0 -98 -7 -114 -46 -99 -22 8 -11
63 18 84 16 13 20 24 16 50 -5 32 -1 59 8 59 2 0 4 -42 4 -94z m-468 12 c109
-64 119 -73 102 -85 -10 -7 -23 -13 -30 -13 -6 0 -66 32 -133 71 -109 64 -119
73 -104 85 10 7 24 14 31 14 8 0 68 -32 134 -72z m356 -17 c13 -7 21 -15 19
-18 -7 -6 -127 60 -127 70 0 5 19 -2 43 -16 23 -13 53 -30 65 -36z m-419 -29
c63 -37 116 -73 119 -80 2 -7 -38 13 -90 43 -51 31 -108 63 -125 72 -30 15
-44 34 -25 32 4 0 58 -30 121 -67z m-1171 6 c23 -13 42 -26 42 -29 0 -3 -19
-16 -43 -29 l-43 -23 -48 25 -48 25 43 26 c24 14 46 26 49 27 3 0 24 -10 48
-22z m1198 -65 c62 -37 111 -69 109 -71 -4 -4 -112 57 -207 116 -91 58 -22 25
98 -45z m-8 -26 c56 -33 102 -66 102 -74 0 -9 -11 -7 -37 10 -67 42 -177 106
-195 113 -10 3 -18 13 -18 20 0 17 2 17 148 -69z m285 20 c-17 -58 -40 -92
-29 -42 18 79 28 105 36 100 5 -3 2 -29 -7 -58z m137 -2 c-13 -53 -25 -73 -37
-62 -4 5 22 99 34 120 13 23 15 -9 3 -58z m-99 -15 c-15 -51 -39 -71 -27 -24
4 15 9 39 13 54 3 17 10 27 17 24 10 -4 9 -17 -3 -54z m1504 35 c22 -13 60
-35 85 -49 25 -13 72 -40 104 -60 33 -20 69 -36 80 -36 19 0 21 -6 21 -65 0
-89 -8 -88 -195 25 -120 72 -120 73 -120 -222 0 -180 3 -247 14 -272 20 -49
238 -298 280 -321 l36 -20 0 -119 0 -118 -32 6 c-41 8 -139 67 -132 78 3 5 21
0 40 -12 20 -11 40 -20 45 -20 6 0 9 29 7 71 l-3 71 -78 45 c-43 24 -82 41
-87 38 -16 -10 -12 -121 5 -138 22 -23 5 -28 -27 -9 -36 20 -63 61 -29 43 11
-6 22 -11 25 -11 3 0 6 31 6 70 0 61 -3 71 -22 83 -13 7 -47 28 -76 45 -64 39
-72 39 -72 7 0 -28 -12 -32 -29 -11 -8 10 -11 68 -10 190 1 144 4 176 15 176
8 0 17 13 20 28 4 21 11 28 27 28 24 -1 36 36 19 57 -6 8 -6 37 0 79 8 62 7
72 -17 121 -14 30 -25 58 -25 63 0 15 72 184 79 184 3 0 24 -11 46 -25z
m-3711 -16 l36 -21 0 -94 c0 -75 -3 -96 -15 -100 -25 -10 -20 -109 6 -135 15
-15 18 -24 10 -32 -6 -6 -11 -29 -11 -50 0 -39 0 -39 -34 -35 -19 2 -32 0 -30
-4 3 -4 16 -8 30 -8 14 0 35 -11 47 -24 12 -13 73 -53 135 -89 l112 -66 0 204
c0 127 4 206 10 210 6 4 8 10 5 15 -9 15 35 34 48 21 9 -9 8 -14 -3 -21 -8 -5
-11 -13 -6 -17 5 -4 11 -2 13 5 7 19 48 14 69 -10 17 -19 17 -21 2 -15 -10 3
-27 3 -37 -1 -17 -6 -3 -25 105 -144 l125 -138 37 24 c20 12 47 28 59 34 l21
12 1 -163 2 -164 -51 -31 c-28 -18 -60 -32 -71 -32 -11 0 -17 -4 -14 -10 9
-15 16 -13 78 24 l56 34 4 -47 c2 -25 4 46 5 159 1 113 5 222 8 242 l7 38 51
-4 51 -4 3 -237 c2 -180 -1 -241 -10 -254 -12 -14 -11 -14 5 -2 14 11 17 30
17 102 l0 88 108 64 107 64 5 143 5 144 50 29 c310 185 336 187 580 45 77 -45
143 -87 147 -92 10 -15 10 -486 0 -486 -4 0 -51 25 -103 56 -51 31 -127 72
-168 92 -64 31 -83 35 -147 35 -63 -1 -82 -5 -141 -35 -127 -65 -358 -205
-395 -241 -34 -31 -38 -40 -38 -85 0 -66 19 -85 195 -187 76 -44 170 -99 209
-122 39 -24 114 -66 166 -95 91 -50 99 -52 183 -56 82 -4 91 -3 151 27 35 17
66 31 69 31 3 0 8 -10 10 -22 2 -13 5 57 6 155 1 160 7 198 25 168 3 -5 66
-44 138 -87 73 -42 141 -84 151 -92 15 -14 17 -41 17 -293 0 -213 -3 -278 -12
-282 -7 -2 7 -14 32 -26 25 -12 36 -15 26 -6 -11 8 -23 15 -28 15 -4 0 -8 41
-8 90 0 50 3 90 7 90 3 0 40 -20 82 -44 96 -57 170 -76 296 -78 124 -2 189 16
306 83 48 27 90 49 93 49 4 0 5 -39 4 -87 l-3 -87 -88 -52 c-53 -31 -115 -59
-155 -69 -122 -30 -131 -34 -77 -28 76 8 160 39 249 93 45 26 137 81 206 122
69 41 158 94 198 117 114 68 112 63 112 267 0 96 3 174 6 174 10 0 75 -41 117
-73 75 -58 75 -60 76 -448 l1 -344 -28 -46 c-29 -45 -83 -86 -200 -153 -31
-18 -165 -97 -297 -175 -155 -91 -263 -148 -305 -161 -152 -46 -313 -45 -457
3 -45 15 -259 134 -628 351 -308 180 -591 346 -630 369 -38 22 -101 59 -140
82 -74 45 -402 236 -495 290 -30 17 -107 62 -170 99 -114 67 -159 94 -335 196
-153 89 -199 123 -233 174 l-33 49 0 321 c0 177 0 331 0 344 2 59 90 151 191
199 l59 28 0 78 c1 42 5 77 10 77 6 0 26 -9 45 -21z m2644 -58 c134 -77 192
-119 192 -140 0 -12 -54 -48 -233 -154 l-127 -75 -15 29 c-17 31 -36 45 -190
134 -55 32 -111 64 -124 72 -22 14 -19 17 140 113 96 57 176 99 192 99 17 1
78 -28 165 -78z m-2048 47 c22 -13 40 -27 40 -31 0 -8 -63 25 -84 45 -18 15 5
8 44 -14z m1747 -15 c4 -10 -26 -27 -34 -20 -2 2 -1 12 3 21 7 18 25 17 31 -1z
m-2151 -89 l54 -35 0 -80 0 -80 -27 15 c-16 9 -59 35 -98 58 -77 48 -81 56
-70 145 l6 53 40 -21 c22 -11 65 -36 95 -55z m406 26 c22 -16 38 -30 33 -30
-13 0 -85 43 -85 52 0 13 8 10 52 -22z m4 -76 c25 -15 43 -28 41 -31 -7 -6
-97 40 -97 49 0 13 8 10 56 -18z m-311 -6 c30 -14 32 -24 5 -38 -15 -8 -20
-21 -20 -50 0 -22 -4 -40 -10 -40 -6 0 -10 30 -10 70 0 39 2 70 5 70 2 0 16
-5 30 -12z m2025 -136 c147 -88 150 -93 150 -264 0 -115 -7 -148 -24 -119 -3
5 -8 68 -10 141 -2 95 -7 135 -17 145 -20 19 -274 165 -288 165 -7 0 -11 -38
-11 -123 0 -68 -3 -127 -7 -130 -3 -4 -12 -2 -20 4 -10 9 -13 45 -13 145 0
187 -9 185 240 36z m1684 23 c37 0 60 6 83 23 34 24 43 27 43 13 0 -5 -25 -24
-56 -42 -30 -19 -70 -44 -87 -56 -36 -25 -103 -63 -112 -63 -3 0 -5 41 -5 90
l0 90 42 -27 c32 -21 54 -28 92 -28z m-3448 -82 c56 -30 97 -63 80 -63 -20 0
-201 108 -223 133 -15 17 -9 16 32 -8 28 -15 78 -43 111 -62z m1647 73 c10 -8
17 -27 17 -48 0 -19 6 -43 14 -53 10 -14 11 -23 3 -36 -8 -13 -7 -25 2 -46 7
-15 13 -30 13 -33 0 -3 7 -13 15 -22 24 -26 0 -22 -47 7 -45 28 -51 40 -17 32
22 -6 22 -6 -2 14 -22 18 -25 29 -28 110 -2 49 0 89 4 89 5 0 16 -7 26 -14z
m-1115 -178 l-3 -132 -95 -57 c-52 -32 -98 -59 -102 -59 -5 0 -8 63 -8 139 l0
139 45 21 c25 12 47 21 50 21 3 0 26 13 53 30 26 16 51 30 55 30 4 0 6 -59 5
-132z m1252 80 c0 -12 -14 -9 -38 8 -33 23 -27 36 8 16 16 -9 30 -20 30 -24z
m-2663 -461 c-1 -89 -3 -13 -3 168 0 182 2 254 3 162 2 -93 2 -241 0 -330z
m2284 468 l49 -26 -2 -215 -3 -215 -27 -17 c-23 -14 -30 -14 -52 -2 l-26 13 0
244 c0 134 2 243 5 243 3 0 28 -11 56 -25z m-1388 -45 c30 -17 37 -26 37 -50
0 -17 -1 -30 -3 -30 -2 0 -30 30 -63 68 -32 37 -48 59 -34 50 14 -10 42 -27
63 -38z m2057 20 c-17 -17 -30 -37 -30 -45 0 -8 -5 -15 -10 -15 -13 0 16 71
33 82 30 19 34 5 7 -22z m1349 26 c-2 -2 -15 -9 -29 -15 -24 -11 -24 -11 -6 3
16 13 49 24 35 12z m-1281 -41 c4 -19 3 -19 -14 -3 -17 17 -19 17 -37 0 -19
-16 -20 -16 -8 6 15 29 54 27 59 -3z m-280 -99 l-3 -85 -49 30 c-26 17 -51 27
-55 23 -3 -4 -1 -8 4 -11 34 -13 105 -65 105 -78 0 -19 -40 -20 -85 -1 -35 15
-53 50 -41 82 4 9 2 22 -4 29 -8 9 -6 14 5 19 9 3 15 18 15 36 0 18 4 29 10
25 5 -3 7 -18 4 -33 -7 -33 27 -82 57 -82 23 0 27 46 6 74 -11 15 -11 24 2 51
23 47 32 22 29 -79z m-360 82 c7 -7 12 -20 12 -30 0 -26 47 -54 69 -41 27 17
141 -49 141 -82 0 -13 5 -27 10 -30 25 -16 2 -36 -102 -91 -63 -34 -113 -67
-116 -76 -2 -10 -9 -18 -16 -18 -6 0 -4 -5 5 -10 13 -7 15 -20 12 -53 -7 -55
15 -107 58 -139 41 -30 162 -96 134 -73 -11 9 -40 27 -65 40 -52 26 -98 70
-111 103 -11 29 -12 72 -1 72 17 0 32 -26 32 -56 0 -30 6 -36 88 -84 48 -29
112 -68 144 -86 67 -41 76 -42 84 -9 9 36 28 26 32 -17 5 -62 -16 -66 -105
-19 -43 23 -69 34 -58 25 25 -19 131 -74 144 -74 6 0 32 14 58 30 26 17 50 30
54 30 17 0 17 -34 -1 -68 -20 -38 -29 -112 -10 -82 5 8 10 27 10 42 0 15 4 29
9 32 10 7 21 -16 21 -45 0 -12 5 -16 15 -13 9 4 15 1 15 -7 0 -18 72 -52 96
-46 16 4 15 5 -4 6 -14 1 -26 10 -31 24 -26 69 67 148 173 146 39 0 46 -2 30
-9 -30 -12 -38 -28 -22 -43 22 -22 42 -25 61 -9 24 21 31 9 14 -25 -23 -43
-46 -59 -122 -84 -38 -12 -64 -24 -58 -26 7 -3 35 3 63 12 27 9 54 14 59 11 5
-3 11 4 14 15 8 29 28 19 51 -24 19 -36 19 -37 1 -57 -28 -31 -45 -25 -45 17
l0 36 -23 -21 c-37 -35 -133 -63 -237 -69 -160 -9 -214 9 -494 174 -197 115
-239 143 -252 171 -18 39 -12 52 13 30 10 -9 29 -21 43 -27 21 -10 22 -9 6 1
-71 48 -91 97 -56 140 11 15 43 40 72 56 l51 30 0 199 c0 109 1 201 4 206 6
10 17 9 31 -5z m2404 -141 c32 -38 48 -67 48 -86 0 -30 15 -19 -220 -157 -80
-47 -167 -99 -193 -115 -51 -31 -92 -36 -117 -16 -19 15 -195 218 -233 268
-40 52 -36 74 20 109 36 23 55 29 76 24 23 -5 46 5 121 50 51 31 96 56 100 56
16 0 82 -66 78 -78 -2 -6 2 -20 7 -31 8 -14 8 -27 -1 -46 l-12 -26 -10 33 c-6
18 -23 39 -38 47 -24 14 -30 14 -62 -1 -27 -13 -36 -25 -42 -53 -3 -19 -12
-35 -20 -35 -7 0 -26 -11 -41 -24 -24 -21 -28 -32 -28 -74 0 -40 5 -56 25 -77
73 -78 174 -72 210 14 6 16 10 38 8 48 -5 27 28 55 56 47 14 -3 32 -1 42 4 12
7 26 3 52 -14 44 -30 57 -30 87 1 27 27 30 37 15 65 -7 12 -5 27 5 48 26 52
-8 102 -69 102 -14 0 -28 -5 -31 -11 -5 -7 -13 -4 -26 7 -18 16 -18 18 19 45
l37 29 44 -48 c24 -26 66 -73 93 -105z m-2172 122 c7 -11 9 -24 5 -27 -7 -7
-35 25 -35 40 0 16 19 8 30 -13z m-1630 -19 c0 -16 -4 -30 -10 -30 -5 0 -10
14 -10 30 0 17 5 30 10 30 6 0 10 -13 10 -30z m2002 0 c23 11 23 11 -1 -9 -28
-25 -41 -19 -40 17 0 27 0 27 9 4 8 -20 13 -21 32 -12z m-286 -27 c22 -30 16
-52 -6 -24 -20 23 -26 41 -14 41 4 0 13 -8 20 -17z m1868 -5 c14 -19 14 -24 2
-36 -17 -17 -61 -9 -70 13 -16 44 40 63 68 23z m987 -74 c18 -9 29 -22 27 -31
-2 -9 -34 -35 -73 -58 -76 -46 -437 -259 -655 -388 -74 -44 -184 -110 -245
-147 -154 -94 -204 -121 -234 -130 -17 -6 -20 -9 -8 -9 27 -1 62 18 392 214
66 39 165 97 220 130 55 32 120 70 145 85 44 27 437 259 453 267 4 2 7 -124 7
-280 l0 -285 -220 -131 c-162 -95 -232 -132 -263 -135 -34 -4 -61 3 -142 37
-94 40 -100 44 -103 74 -6 64 46 131 143 182 l39 21 23 -22 c21 -20 23 -30 25
-152 l2 -131 3 129 c4 129 4 129 -24 158 -15 15 -30 28 -34 28 -4 0 -36 -17
-70 -38 -55 -33 -68 -47 -96 -102 -33 -63 -33 -64 -33 -212 l0 -148 -42 -26
c-350 -208 -399 -235 -436 -237 -32 -1 -64 14 -198 95 l-159 95 -3 102 c-3
102 -3 103 20 95 12 -3 40 -7 63 -8 22 -1 49 -7 61 -13 31 -18 44 1 44 63 0
51 -1 52 -50 84 -35 22 -56 30 -71 25 -18 -6 -20 -4 -14 17 11 35 45 101 63
120 12 15 18 16 31 6 13 -11 13 -9 -1 7 -14 18 -15 22 -2 40 14 19 16 18 83
-18 108 -58 122 -56 320 61 91 55 199 118 239 142 70 41 72 43 72 81 0 43 9
47 49 23 25 -15 29 -14 86 18 l60 34 5 72 5 72 44 -25 c68 -39 88 -34 247 60
79 47 146 90 149 95 9 14 21 13 56 -6z m-1003 -20 c29 -20 25 -51 -10 -72 -25
-15 -28 -15 -46 2 -20 17 -20 48 1 74 13 16 28 15 55 -4z m55 1 c4 -8 2 -17
-3 -20 -6 -4 -10 -4 -10 -1 0 2 -3 11 -6 20 -3 9 -2 16 4 16 5 0 12 -7 15 -15z
m1004 -137 c-2 -29 -3 -8 -3 47 0 55 1 79 3 53 2 -26 2 -71 0 -100z m-929 100
c17 -17 15 -45 -4 -52 -32 -12 -79 35 -57 57 11 11 48 8 61 -5z m-1003 -7 c10
-17 -34 -34 -51 -20 -12 10 -12 14 -2 20 18 12 46 11 53 0z m-1763 -39 c26
-11 112 -59 192 -106 l145 -86 -28 -27 c-15 -16 -30 -34 -32 -41 -4 -13 -18
-6 -244 126 -137 80 -146 84 -168 78 -19 -4 -195 -105 -344 -198 -31 -19 -53
-39 -53 -49 0 -12 33 -37 98 -75 53 -31 160 -93 237 -138 77 -46 161 -95 187
-109 47 -27 96 -35 113 -18 6 5 45 30 88 55 l77 45 0 -63 0 -63 -55 -28 c-39
-19 -76 -29 -125 -33 -112 -8 -133 0 -380 148 -25 15 -79 46 -120 70 -257 149
-292 178 -274 227 12 35 57 68 244 177 208 122 248 138 330 133 36 -2 86 -13
112 -25z m748 12 c0 -8 -4 -12 -10 -9 -5 3 -10 10 -10 16 0 5 5 9 10 9 6 0 10
-7 10 -16z m89 -23 c19 -19 19 -19 -5 -25 -26 -7 -74 2 -74 13 0 13 24 31 42
31 10 0 27 -9 37 -19z m281 -127 c0 -92 -2 -102 -22 -120 -34 -30 -75 -54 -92
-54 -8 0 -19 -6 -23 -13 -20 -32 -123 -74 -123 -49 0 4 42 31 93 61 136 81
127 67 127 191 0 59 3 110 7 113 3 4 12 -1 19 -11 9 -11 13 -50 14 -118z
m1330 121 c0 -8 -4 -15 -10 -15 -5 0 -10 7 -10 15 0 8 5 15 10 15 6 0 10 -7
10 -15z m-869 -82 l55 -54 97 57 c94 55 98 56 117 39 21 -19 70 -98 70 -113 0
-5 -24 -22 -52 -37 -29 -16 -73 -41 -97 -57 -25 -15 -50 -28 -55 -28 -6 0 -29
28 -51 63 -22 34 -71 96 -110 137 -76 81 -63 78 26 -7z m835 66 c3 -6 17 -9
30 -6 21 4 24 0 24 -25 0 -17 -6 -31 -16 -35 -19 -7 -63 12 -70 32 -12 31 15
60 32 34z m-882 -51 c52 -51 166 -201 166 -219 0 -18 -26 3 -46 39 -28 48
-103 142 -112 140 -4 -1 -24 4 -44 12 -26 10 -38 20 -38 34 0 19 0 19 23 0 50
-45 59 -45 17 -1 -60 64 -34 60 34 -5z m-749 -14 c13 -9 44 -16 69 -17 51 -2
59 -17 24 -41 -44 -31 -132 -8 -127 32 2 10 -1 27 -5 39 -4 13 -4 28 1 35 6 9
9 6 11 -10 2 -12 14 -29 27 -38z m125 34 c0 -15 -30 -48 -44 -48 -6 0 -3 5 7
11 9 5 17 21 17 35 0 14 4 22 10 19 6 -3 10 -11 10 -17z m-30 2 c0 -5 -20 -10
-45 -10 -25 0 -48 0 -52 -1 -4 0 -9 4 -11 10 -2 7 17 11 52 11 31 0 56 -4 56
-10z m-170 -15 c0 -2 -21 -16 -47 -31 -27 -15 -65 -37 -85 -50 -21 -13 -43
-24 -50 -23 -9 0 -8 2 1 6 8 3 48 28 89 54 69 45 92 56 92 44z m-870 -20 c0
-2 -13 -11 -30 -20 -38 -19 -40 -11 -2 9 31 17 32 18 32 11z m135 -25 c3 -6
-1 -7 -9 -4 -18 7 -21 14 -7 14 6 0 13 -4 16 -10z m553 -8 c3 -9 -2 -13 -14
-10 -9 1 -19 9 -22 16 -3 9 2 13 14 10 9 -1 19 -9 22 -16z m932 -8 c0 -23 -3
-25 -24 -20 -28 7 -56 -15 -56 -44 0 -27 -19 -35 -38 -16 -15 14 -14 19 1 51
18 38 44 53 90 54 23 1 27 -3 27 -25z m-730 -24 c0 -11 -3 -20 -7 -20 -5 0
-23 -9 -41 -20 -28 -17 -32 -23 -22 -36 11 -12 17 -12 49 7 19 11 37 17 38 12
2 -4 32 -7 68 -6 49 1 65 -2 65 -12 0 -8 -8 -19 -17 -24 -23 -13 -8 -14 16 -1
10 5 21 23 24 39 l6 30 50 -25 c28 -13 53 -28 55 -33 5 -8 -132 -96 -177 -113
-10 -4 -15 -12 -12 -18 11 -17 -6 -11 -74 27 -97 54 -157 93 -143 93 17 0 80
-33 148 -76 31 -20 58 -34 60 -31 3 2 -34 26 -82 53 -47 27 -99 60 -116 73
l-29 24 63 38 c74 44 78 45 78 19z m906 -94 c26 -39 48 -72 49 -74 1 -1 32 16
68 38 37 22 72 40 78 40 22 0 -13 -30 -97 -81 -86 -53 -110 -73 -51 -43 46 24
108 65 134 88 31 26 40 13 21 -27 -21 -43 -214 -163 -235 -145 -10 8 -13 3
-13 -23 1 -29 3 -32 13 -18 7 8 46 35 87 59 41 24 94 56 118 72 l42 29 0 -274
c0 -318 6 -297 -108 -366 -182 -112 -298 -178 -304 -174 -5 2 -8 127 -8 278
l0 274 26 20 c15 12 33 21 40 21 8 0 14 7 14 15 0 17 -11 13 -82 -32 -45 -28
-48 -28 -48 -4 0 24 98 90 109 73 4 -7 7 17 7 53 0 36 -3 65 -7 65 -8 0 -29
-64 -29 -87 0 -12 -69 -73 -82 -73 -19 0 -5 30 16 36 14 3 33 15 43 26 18 21
18 21 -4 9 -22 -11 -53 -6 -53 9 0 4 7 10 15 14 20 7 19 59 -2 99 -15 30 -15
31 1 17 10 -8 22 -24 27 -37 5 -14 17 -23 30 -23 17 0 20 5 18 33 -2 18 5 44
16 60 10 15 18 42 17 59 0 17 8 42 18 55 18 24 19 24 29 4 19 -35 13 -115 -10
-145 -19 -24 -19 -29 -6 -39 8 -7 17 -19 20 -27 4 -12 6 -11 6 3 1 10 6 15 11
12 13 -8 13 18 0 31 -6 6 -4 25 6 53 13 38 13 50 0 93 -18 64 -4 53 60 -46z
m-776 58 c0 -18 -71 -19 -88 -2 -20 20 -14 23 38 20 35 -3 50 -8 50 -18z
m-1215 -14 c-3 -5 -12 -10 -18 -10 -7 0 -6 4 3 10 19 12 23 12 15 0z m1829 -6
c11 -28 6 -67 -9 -84 -12 -14 -24 -15 -77 -7 -35 5 -69 11 -75 13 -22 6 -14
24 10 24 13 0 47 15 77 34 65 40 66 41 74 20z m406 -84 c0 -47 -4 -80 -10 -80
-6 0 -10 33 -10 80 0 47 4 80 10 80 6 0 10 -33 10 -80z m-1143 -58 c64 -38 95
-62 78 -62 -3 0 -22 11 -43 24 -20 13 -74 45 -119 71 -46 26 -88 54 -94 62
-12 13 33 -11 178 -95z m-1187 93 c0 -2 -13 -11 -30 -20 -38 -19 -40 -11 -2 9
31 17 32 18 32 11z m720 -31 c0 -2 -13 2 -30 11 -16 9 -30 18 -30 21 0 2 14
-2 30 -11 17 -9 30 -18 30 -21z m1014 4 c9 -33 8 -38 -8 -38 -24 0 -47 -40
-35 -62 6 -12 6 -18 -1 -18 -5 0 -10 7 -10 15 0 8 -9 15 -20 15 -14 0 -20 -7
-20 -22 0 -17 -14 -30 -51 -51 -38 -21 -55 -38 -67 -67 -10 -22 -20 -40 -23
-40 -28 0 -66 208 -41 224 5 3 20 -3 34 -12 24 -16 25 -19 12 -37 -18 -24 -18
-56 0 -81 14 -19 15 -19 38 3 13 12 35 25 51 28 45 12 30 44 -32 71 l-26 12
39 17 c21 9 47 14 58 12 11 -3 29 6 47 24 35 35 47 36 55 7z m689 -40 c15 -11
16 -16 4 -32 -13 -17 -15 -17 -45 -2 -25 13 -32 23 -32 47 0 29 0 29 28 15 15
-8 35 -20 45 -28z m167 1 c0 -11 -4 -18 -10 -14 -5 3 -7 12 -3 20 7 21 13 19
13 -6z m-870 -33 c0 -3 -4 -8 -10 -11 -5 -3 -10 -1 -10 4 0 6 5 11 10 11 6 0
10 -2 10 -4z m666 -20 c18 -14 18 -16 1 -43 -10 -15 -27 -47 -37 -71 -11 -24
-24 -40 -30 -37 -5 3 -10 31 -10 62 0 44 5 62 22 80 25 27 28 27 54 9z m179
-31 c32 -19 62 -36 69 -38 7 -3 4 -12 -8 -26 -12 -13 -26 -19 -35 -16 -12 5
-13 3 -4 -6 9 -9 5 -26 -19 -73 -17 -34 -32 -62 -33 -64 -3 -4 -75 38 -97 56
-9 8 -22 11 -27 7 -6 -3 -11 2 -11 12 0 22 44 118 58 127 6 3 28 -3 49 -15 35
-19 20 -1 -16 20 -14 8 -7 51 8 51 5 0 34 -16 66 -35z m-1035 -11 c0 -13 -4
-24 -10 -24 -5 0 -10 14 -10 31 0 17 4 28 10 24 6 -3 10 -17 10 -31z m-1610
-39 c0 -3 -22 6 -50 20 -27 14 -50 28 -50 30 0 3 23 -6 50 -20 28 -14 50 -28
50 -30z m2800 45 c0 -6 -27 -49 -60 -97 -92 -132 -128 -273 -72 -281 15 -2 22
-9 20 -20 -5 -24 -36 -27 -60 -5 -18 16 -20 27 -16 88 7 97 59 208 142 303 20
23 46 30 46 12z m60 -26 c0 -8 -5 -12 -10 -9 -6 4 -8 11 -5 16 9 14 15 11 15
-7z m-2695 -117 c6 -6 -17 4 -50 22 -33 18 -64 38 -70 44 -5 5 17 -5 50 -23
33 -18 65 -38 70 -43z m125 -73 c0 -7 -98 45 -104 55 -3 5 19 -4 49 -21 30
-16 55 -31 55 -34z m982 -38 c133 -73 309 -90 448 -43 41 13 82 28 91 31 22
10 35 -35 14 -47 -15 -8 -21 -57 -7 -57 4 0 31 14 60 30 41 24 52 36 52 55 0
14 -5 25 -11 25 -18 0 -6 64 14 68 15 3 17 -6 17 -81 l0 -84 -81 -48 c-103
-61 -162 -83 -257 -96 -133 -19 -269 16 -404 102 l-48 31 0 90 0 90 25 -16
c13 -9 53 -31 87 -50z m1294 49 c10 -8 15 -14 9 -14 -5 0 -19 6 -29 14 -11 8
-15 15 -10 15 6 0 19 -7 30 -15z m-2141 -90 c11 -9 -2 -4 -30 11 -27 15 -54
32 -60 37 -16 15 68 -29 90 -48z m365 15 c-35 -24 -54 -31 -30 -11 14 11 30
21 35 21 6 0 3 -5 -5 -10z m1967 -42 c5 -7 11 -34 12 -60 2 -39 -1 -48 -14
-48 -12 0 -14 4 -5 19 7 14 7 28 -2 48 -6 15 -10 32 -9 37 2 8 -24 4 -72 -10
-14 -5 -18 -1 -15 13 3 13 12 18 36 16 31 -1 32 0 15 13 -15 13 -13 13 13 0
17 -8 35 -21 41 -28z m-857 12 c0 -5 -18 -19 -40 -30 -48 -24 -54 -10 -7 18
37 23 47 26 47 12z m-1373 -22 c41 -10 101 -7 163 7 24 6 24 6 5 -7 -32 -20
-183 -17 -220 5 -16 10 -22 16 -11 12 10 -3 38 -10 63 -17z m1421 -144 l-3
-79 -80 -48 c-138 -81 -171 -91 -320 -91 -148 0 -175 7 -303 80 l-82 46 0 89
c0 49 1 89 3 89 2 0 39 -20 82 -45 122 -69 162 -80 300 -80 144 0 196 14 310
83 44 27 84 46 88 42 4 -4 7 -42 5 -86z m-495 -1111 c-7 -2 -19 -2 -25 0 -7 3
-2 5 12 5 14 0 19 -2 13 -5z"/>
<path d="M2693 6412 c4 -6 22 -21 39 -34 17 -12 28 -17 25 -10 -4 6 -22 21
-39 34 -17 12 -28 17 -25 10z"/>
<path d="M2799 6326 c13 -16 51 -41 51 -33 0 2 -15 14 -32 27 -21 15 -28 17
-19 6z"/>
<path d="M2590 6256 c0 -3 14 -12 30 -21 17 -9 30 -13 30 -11 0 3 -13 12 -30
21 -16 9 -30 13 -30 11z"/>
<path d="M2906 6238 c16 -12 41 -31 55 -42 14 -12 5 -2 -20 22 -25 23 -50 42
-55 42 -5 0 4 -10 20 -22z"/>
<path d="M3000 6167 c0 -3 17 -17 37 -33 20 -15 33 -23 29 -16 -8 13 -66 56
-66 49z"/>
<path d="M2760 6155 c0 -2 18 -14 40 -25 22 -11 40 -18 40 -15 0 2 -18 14 -40
25 -22 11 -40 18 -40 15z"/>
<path d="M2880 6085 c0 -2 18 -14 40 -25 22 -11 40 -18 40 -15 0 2 -18 14 -40
25 -22 11 -40 18 -40 15z"/>
<path d="M3100 6087 c0 -3 17 -17 37 -33 20 -15 33 -23 29 -16 -8 13 -66 56
-66 49z"/>
<path d="M3200 6007 c0 -3 17 -17 37 -33 20 -15 33 -23 29 -16 -8 13 -66 56
-66 49z"/>
<path d="M1980 5995 c0 -2 18 -14 40 -25 22 -11 40 -18 40 -15 0 2 -18 14 -40
25 -22 11 -40 18 -40 15z"/>
<path d="M3050 5985 c0 -7 61 -37 66 -33 2 3 -12 12 -31 21 -19 9 -35 15 -35
12z"/>
<path d="M3299 5927 c16 -20 71 -61 71 -54 0 3 -19 20 -42 38 -24 19 -37 26
-29 16z"/>
<path d="M2100 5925 c0 -2 18 -14 40 -25 22 -11 40 -18 40 -15 0 2 -18 14 -40
25 -22 11 -40 18 -40 15z"/>
<path d="M3170 5915 c0 -2 18 -14 40 -25 22 -11 40 -18 40 -15 0 2 -18 14 -40
25 -22 11 -40 18 -40 15z"/>
<path d="M3393 5853 c10 -11 55 -48 100 -82 90 -68 51 -30 -53 51 -36 28 -57
42 -47 31z"/>
<path d="M2230 5846 c0 -2 7 -7 16 -10 8 -3 12 -2 9 4 -6 10 -25 14 -25 6z"/>
<path d="M3290 5846 c0 -3 9 -10 20 -16 11 -6 20 -8 20 -6 0 3 -9 10 -20 16
-11 6 -20 8 -20 6z"/>
<path d="M1910 5835 c0 -2 18 -14 40 -25 22 -11 40 -18 40 -15 0 2 -18 14 -40
25 -22 11 -40 18 -40 15z"/>
<path d="M2290 5816 c0 -3 14 -12 30 -21 17 -9 30 -13 30 -11 0 3 -13 12 -30
21 -16 9 -30 13 -30 11z"/>
<path d="M3360 5806 c0 -3 9 -10 20 -16 11 -6 20 -8 20 -6 0 3 -9 10 -20 16
-11 6 -20 8 -20 6z"/>
<path d="M2050 5756 c0 -3 14 -12 30 -21 17 -9 30 -13 30 -11 0 3 -13 12 -30
21 -16 9 -30 13 -30 11z"/>
<path d="M2390 5755 c0 -2 18 -14 40 -25 22 -11 40 -18 40 -15 0 2 -18 14 -40
25 -22 11 -40 18 -40 15z"/>
<path d="M3460 5745 c0 -2 18 -14 40 -25 22 -11 40 -18 40 -15 0 2 -18 14 -40
25 -22 11 -40 18 -40 15z"/>
<path d="M3604 5682 c4 -7 2 -12 -5 -12 -11 0 18 -19 111 -75 11 -6 10 -2 -3
12 -21 24 -113 91 -103 75z"/>
<path d="M2521 5676 c10 -9 69 -36 69 -32 0 6 -55 36 -66 36 -4 0 -5 -2 -3 -4z"/>
<path d="M2220 5656 c0 -3 14 -12 30 -21 17 -9 30 -13 30 -11 0 3 -13 12 -30
21 -16 9 -30 13 -30 11z"/>
<path d="M2340 5585 c0 -2 18 -14 40 -25 22 -11 40 -18 40 -15 0 2 -18 14 -40
25 -22 11 -40 18 -40 15z"/>
<path d="M2680 5585 c0 -2 18 -14 40 -25 22 -11 40 -18 40 -15 0 2 -18 14 -40
25 -22 11 -40 18 -40 15z"/>
<path d="M2800 5515 c0 -2 18 -14 40 -25 22 -11 40 -18 40 -15 0 2 -18 14 -40
25 -22 11 -40 18 -40 15z"/>
<path d="M2486 5495 c10 -8 23 -15 28 -15 6 0 1 7 -10 15 -10 8 -23 15 -28 15
-6 0 -1 -7 10 -15z"/>
<path d="M2530 5476 c0 -3 9 -10 20 -16 11 -6 20 -8 20 -6 0 3 -9 10 -20 16
-11 6 -20 8 -20 6z"/>
<path d="M3950 5462 c0 -14 113 -70 129 -64 8 3 11 0 7 -7 -5 -7 -1 -9 10 -4
15 6 14 8 -7 17 -13 5 -50 23 -81 38 -32 16 -58 24 -58 20z"/>
<path d="M2630 5416 c0 -3 14 -12 30 -21 17 -9 30 -13 30 -11 0 3 -13 12 -30
21 -16 9 -30 13 -30 11z"/>
<path d="M2970 5415 c0 -2 18 -14 40 -25 22 -11 40 -18 40 -15 0 2 -18 14 -40
25 -22 11 -40 18 -40 15z"/>
<path d="M2750 5346 c0 -3 14 -12 30 -21 17 -9 30 -13 30 -11 0 3 -13 12 -30
21 -16 9 -30 13 -30 11z"/>
<path d="M3090 5345 c0 -2 18 -14 40 -25 22 -11 40 -18 40 -15 0 2 -18 14 -40
25 -22 11 -40 18 -40 15z"/>
<path d="M4160 5335 c0 -2 18 -14 40 -25 22 -11 40 -18 40 -15 0 2 -18 14 -40
25 -22 11 -40 18 -40 15z"/>
<path d="M4240 5330 c8 -5 20 -10 25 -10 6 0 3 5 -5 10 -8 5 -19 10 -25 10 -5
0 -3 -5 5 -10z"/>
<path d="M1540 5301 c-31 -25 -33 -30 -20 -45 13 -17 90 -61 90 -52 0 2 -20
16 -45 30 -25 15 -45 31 -45 37 0 16 63 49 93 49 15 0 41 -7 57 -15 17 -9 30
-13 30 -11 0 3 -13 12 -30 21 -46 24 -91 19 -130 -14z"/>
<path d="M4290 5310 c8 -5 20 -10 25 -10 6 0 3 5 -5 10 -8 5 -19 10 -25 10 -5
0 -3 -5 5 -10z"/>
<path d="M3210 5276 c0 -3 9 -10 20 -16 11 -6 20 -8 20 -6 0 3 -9 10 -20 16
-11 6 -20 8 -20 6z"/>
<path d="M1740 5265 c0 -2 18 -14 40 -25 22 -11 40 -18 40 -15 0 2 -18 14 -40
25 -22 11 -40 18 -40 15z"/>
<path d="M4280 5265 c0 -2 18 -14 40 -25 22 -11 40 -18 40 -15 0 2 -18 14 -40
25 -22 11 -40 18 -40 15z"/>
<path d="M2900 5255 c0 -2 23 -16 50 -30 28 -14 50 -23 50 -20 0 2 -22 16 -50
30 -27 14 -50 23 -50 20z"/>
<path d="M4450 5242 c8 -5 26 -13 40 -16 17 -5 20 -4 10 2 -8 5 -26 13 -40 16
-17 5 -20 4 -10 -2z"/>
<path d="M3294 5226 c11 -9 24 -16 30 -16 12 0 7 5 -24 19 -24 11 -24 11 -6
-3z"/>
<path d="M4377 5209 c7 -7 15 -10 18 -7 3 3 -2 9 -12 12 -14 6 -15 5 -6 -5z"/>
<path d="M1630 5185 c0 -2 18 -14 40 -25 22 -11 40 -18 40 -15 0 2 -18 14 -40
25 -22 11 -40 18 -40 15z"/>
<path d="M1895 5175 c22 -19 106 -63 90 -48 -5 5 -32 22 -60 37 -27 15 -41 20
-30 11z"/>
<path d="M3040 5175 c0 -2 18 -14 40 -25 22 -11 40 -18 40 -15 0 2 -18 14 -40
25 -22 11 -40 18 -40 15z"/>
<path d="M3380 5175 c0 -2 18 -14 40 -25 22 -11 40 -18 40 -15 0 2 -18 14 -40
25 -22 11 -40 18 -40 15z"/>
<path d="M580 5145 c13 -14 26 -25 28 -25 3 0 -5 11 -18 25 -13 14 -26 25 -28
25 -3 0 5 -11 18 -25z"/>
<path d="M4450 5165 c0 -2 18 -14 40 -25 22 -11 40 -18 40 -15 0 2 -18 14 -40
25 -22 11 -40 18 -40 15z"/>
<path d="M4640 5160 c8 -5 20 -10 25 -10 6 0 3 5 -5 10 -8 5 -19 10 -25 10 -5
0 -3 -5 5 -10z"/>
<path d="M4690 5140 c8 -5 20 -10 25 -10 6 0 3 5 -5 10 -8 5 -19 10 -25 10 -5
0 -3 -5 5 -10z"/>
<path d="M640 5095 c0 -2 18 -14 40 -25 22 -11 40 -18 40 -15 0 2 -18 14 -40
25 -22 11 -40 18 -40 15z"/>
<path d="M2030 5095 c0 -2 18 -14 40 -25 22 -11 40 -18 40 -15 0 2 -18 14 -40
25 -22 11 -40 18 -40 15z"/>
<path d="M3520 5096 c0 -3 14 -12 30 -21 17 -9 30 -13 30 -11 0 3 -13 12 -30
21 -16 9 -30 13 -30 11z"/>
<path d="M4570 5095 c0 -2 18 -14 40 -25 22 -11 40 -18 40 -15 0 2 -18 14 -40
25 -22 11 -40 18 -40 15z"/>
<path d="M4800 5090 c8 -5 20 -10 25 -10 6 0 3 5 -5 10 -8 5 -19 10 -25 10 -5
0 -3 -5 5 -10z"/>
<path d="M1800 5085 c0 -2 18 -14 40 -25 22 -11 40 -18 40 -15 0 2 -18 14 -40
25 -22 11 -40 18 -40 15z"/>
<path d="M3210 5076 c0 -3 14 -12 30 -21 17 -9 30 -13 30 -11 0 3 -13 12 -30
21 -16 9 -30 13 -30 11z"/>
<path d="M4850 5070 c8 -5 20 -10 25 -10 6 0 3 5 -5 10 -8 5 -19 10 -25 10 -5
0 -3 -5 5 -10z"/>
<path d="M1920 5015 c0 -2 18 -14 40 -25 22 -11 40 -18 40 -15 0 2 -18 14 -40
25 -22 11 -40 18 -40 15z"/>
<path d="M2215 4985 c22 -13 45 -24 50 -25 6 0 -8 11 -30 25 -22 13 -44 24
-50 25 -5 0 8 -11 30 -25z"/>
<path d="M3330 5005 c0 -2 18 -14 40 -25 22 -11 40 -18 40 -15 0 2 -18 14 -40
25 -22 11 -40 18 -40 15z"/>
<path d="M3670 5005 c0 -2 18 -14 40 -25 22 -11 40 -18 40 -15 0 2 -18 14 -40
25 -22 11 -40 18 -40 15z"/>
<path d="M5010 5000 c8 -5 20 -10 25 -10 6 0 3 5 -5 10 -8 5 -19 10 -25 10 -5
0 -3 -5 5 -10z"/>
<path d="M810 4996 c0 -3 14 -12 30 -21 17 -9 30 -13 30 -11 0 3 -13 12 -30
21 -16 9 -30 13 -30 11z"/>
<path d="M4760 4986 c0 -3 14 -12 30 -21 17 -9 30 -13 30 -11 0 3 -13 12 -30
21 -16 9 -30 13 -30 11z"/>
<path d="M5060 4980 c8 -5 20 -10 25 -10 6 0 3 5 -5 10 -8 5 -19 10 -25 10 -5
0 -3 -5 5 -10z"/>
<path d="M3450 4936 c0 -3 14 -12 30 -21 17 -9 30 -13 30 -11 0 3 -13 12 -30
21 -16 9 -30 13 -30 11z"/>
<path d="M3790 4935 c0 -2 23 -16 50 -30 28 -14 50 -23 50 -20 0 2 -22 16 -50
30 -27 14 -50 23 -50 20z"/>
<path d="M930 4925 c0 -2 18 -14 40 -25 22 -11 40 -18 40 -15 0 2 -18 14 -40
25 -22 11 -40 18 -40 15z"/>
<path d="M2320 4925 c0 -2 18 -14 40 -25 22 -11 40 -18 40 -15 0 2 -18 14 -40
25 -22 11 -40 18 -40 15z"/>
<path d="M4860 4925 c0 -2 18 -14 40 -25 22 -11 40 -18 40 -15 0 2 -18 14 -40
25 -22 11 -40 18 -40 15z"/>
<path d="M2090 4915 c0 -2 18 -14 40 -25 22 -11 40 -18 40 -15 0 2 -18 14 -40
25 -22 11 -40 18 -40 15z"/>
<path d="M5220 4912 c8 -5 26 -13 40 -16 17 -5 20 -4 10 2 -8 5 -26 13 -40 16
-17 5 -20 4 -10 -2z"/>
<path d="M1050 4855 c0 -2 18 -14 40 -25 22 -11 40 -18 40 -15 0 2 -18 14 -40
25 -22 11 -40 18 -40 15z"/>
<path d="M2210 4845 c0 -2 23 -16 50 -30 28 -14 50 -23 50 -20 0 2 -22 16 -50
30 -27 14 -50 23 -50 20z"/>
<path d="M2460 4846 c0 -3 14 -12 30 -21 17 -9 30 -13 30 -11 0 3 -13 12 -30
21 -16 9 -30 13 -30 11z"/>
<path d="M3975 4825 c22 -14 45 -25 50 -25 6 0 -10 11 -34 25 -56 32 -68 32
-16 0z"/>
<path d="M5020 4831 c24 -20 40 -26 40 -16 0 2 -15 12 -32 20 l-33 16 25 -20z"/>
<path d="M5380 4840 c8 -5 20 -10 25 -10 6 0 3 5 -5 10 -8 5 -19 10 -25 10 -5
0 -3 -5 5 -10z"/>
<path d="M3620 4835 c0 -2 18 -14 40 -25 22 -11 40 -18 40 -15 0 2 -18 14 -40
25 -22 11 -40 18 -40 15z"/>
<path d="M5430 4822 c8 -5 26 -13 40 -16 17 -5 20 -4 10 2 -8 5 -26 13 -40 16
-17 5 -20 4 -10 -2z"/>
<path d="M1220 4755 c0 -2 18 -14 40 -25 22 -11 40 -18 40 -15 0 2 -18 14 -40
25 -22 11 -40 18 -40 15z"/>
<path d="M2361 4756 c2 -2 15 -9 29 -15 24 -11 24 -11 6 3 -16 13 -49 24 -35
12z"/>
<path d="M3751 4756 c10 -9 69 -36 69 -32 0 6 -55 36 -66 36 -4 0 -5 -2 -3 -4z"/>
<path d="M4100 4756 c0 -3 14 -12 30 -21 17 -9 30 -13 30 -11 0 3 -13 12 -30
21 -16 9 -30 13 -30 11z"/>
<path d="M5150 4755 c0 -2 18 -14 40 -25 22 -11 40 -18 40 -15 0 2 -18 14 -40
25 -22 11 -40 18 -40 15z"/>
<path d="M2630 4746 c0 -3 14 -12 30 -21 17 -9 30 -13 30 -11 0 3 -13 12 -30
21 -16 9 -30 13 -30 11z"/>
<path d="M1340 4685 c0 -2 18 -14 40 -25 22 -11 40 -18 40 -15 0 2 -18 14 -40
25 -22 11 -40 18 -40 15z"/>
<path d="M2730 4685 c0 -2 23 -16 50 -30 28 -14 50 -23 50 -20 0 2 -22 16 -50
30 -27 14 -50 23 -50 20z"/>
<path d="M4210 4686 c0 -2 7 -7 16 -10 8 -3 12 -2 9 4 -6 10 -25 14 -25 6z"/>
<path d="M5270 4686 c0 -3 14 -12 30 -21 17 -9 30 -13 30 -11 0 3 -13 12 -30
21 -16 9 -30 13 -30 11z"/>
<path d="M2520 4666 c0 -3 14 -12 30 -21 17 -9 30 -13 30 -11 0 3 -13 12 -30
21 -16 9 -30 13 -30 11z"/>
<path d="M3910 4665 c0 -2 18 -14 40 -25 22 -11 40 -18 40 -15 0 2 -18 14 -40
25 -22 11 -40 18 -40 15z"/>
<path d="M4250 4666 c0 -2 7 -7 16 -10 8 -3 12 -2 9 4 -6 10 -25 14 -25 6z"/>
<path d="M2640 4596 c0 -3 14 -12 30 -21 17 -9 30 -13 30 -11 0 3 -13 12 -30
21 -16 9 -30 13 -30 11z"/>
<path d="M2880 4596 c0 -2 7 -7 16 -10 8 -3 12 -2 9 4 -6 10 -25 14 -25 6z"/>
<path d="M4030 4596 c0 -3 14 -12 30 -21 17 -9 30 -13 30 -11 0 3 -13 12 -30
21 -16 9 -30 13 -30 11z"/>
<path d="M4370 4595 c0 -2 23 -16 50 -30 28 -14 50 -23 50 -20 0 2 -22 16 -50
30 -27 14 -50 23 -50 20z"/>
<path d="M1510 4585 c0 -2 18 -14 40 -25 22 -11 40 -18 40 -15 0 2 -18 14 -40
25 -22 11 -40 18 -40 15z"/>
<path d="M2927 4569 c7 -7 15 -10 18 -7 3 3 -2 9 -12 12 -14 6 -15 5 -6 -5z"/>
<path d="M1630 4515 c0 -2 18 -14 40 -25 22 -11 40 -18 40 -15 0 2 -18 14 -40
25 -22 11 -40 18 -40 15z"/>
<path d="M4510 4516 c0 -3 14 -12 30 -21 17 -9 30 -13 30 -11 0 3 -13 12 -30
21 -16 9 -30 13 -30 11z"/>
<path d="M2790 4505 c0 -2 23 -16 50 -30 63 -32 66 -25 4 9 -48 27 -54 29 -54
21z"/>
<path d="M3040 4506 c0 -3 14 -12 30 -21 17 -9 30 -13 30 -11 0 3 -13 12 -30
21 -16 9 -30 13 -30 11z"/>
<path d="M4190 4499 c26 -18 70 -40 70 -35 0 6 -66 46 -76 46 -5 0 -2 -5 6
-11z"/>
<path d="M1750 4445 c0 -2 18 -14 40 -25 22 -11 40 -18 40 -15 0 2 -18 14 -40
25 -22 11 -40 18 -40 15z"/>
<path d="M3140 4445 c0 -2 23 -16 50 -30 28 -14 50 -23 50 -20 0 2 -22 16 -50
30 -27 14 -50 23 -50 20z"/>
<path d="M2910 4435 c0 -2 23 -16 50 -30 28 -14 50 -23 50 -20 0 2 -22 16 -50
30 -27 14 -50 23 -50 20z"/>
<path d="M4320 4426 c0 -2 20 -16 44 -30 25 -14 59 -43 76 -63 18 -21 27 -28
21 -17 -13 27 -72 79 -111 99 -17 9 -30 14 -30 11z"/>
<path d="M4680 4416 c0 -3 14 -12 30 -21 17 -9 30 -13 30 -11 0 3 -13 12 -30
21 -16 9 -30 13 -30 11z"/>
<path d="M3050 4356 c0 -3 9 -10 20 -16 11 -6 20 -8 20 -6 0 3 -9 10 -20 16
-11 6 -20 8 -20 6z"/>
<path d="M1920 4345 c0 -2 18 -14 40 -25 22 -11 40 -18 40 -15 0 2 -18 14 -40
25 -22 11 -40 18 -40 15z"/>
<path d="M3310 4345 c0 -7 81 -47 86 -43 2 3 -17 14 -41 26 -25 12 -45 20 -45
17z"/>
<path d="M3127 4309 c7 -7 15 -10 18 -7 3 3 -2 9 -12 12 -14 6 -15 5 -6 -5z"/>
<path d="M4471 4285 c1 -19 18 -51 18 -35 0 8 -4 22 -9 30 -5 8 -9 11 -9 5z"/>
<path d="M2040 4275 c0 -2 18 -14 40 -25 22 -11 40 -18 40 -15 0 2 -18 14 -40
25 -22 11 -40 18 -40 15z"/>
<path d="M3200 4265 c0 -2 18 -14 40 -25 22 -11 40 -18 40 -15 0 2 -18 14 -40
25 -22 11 -40 18 -40 15z"/>
<path d="M3468 4255 c12 -10 22 -24 22 -31 0 -17 -41 -44 -83 -54 -29 -7 -30
-8 -6 -9 34 -1 94 39 94 63 0 10 -11 25 -25 34 -25 14 -25 14 -2 -3z"/>
<path d="M3347 4179 c7 -7 15 -10 18 -7 3 3 -2 9 -12 12 -14 6 -15 5 -6 -5z"/>
<path d="M2210 4175 c0 -7 61 -37 66 -33 2 3 -12 12 -31 21 -19 9 -35 15 -35
12z"/>
<path d="M4438 4086 c-26 -32 -65 -61 -165 -119 -26 -16 -113 -67 -193 -114
-80 -47 -181 -106 -225 -133 -182 -109 -220 -121 -410 -130 l-140 -7 120 -1
c76 -1 143 4 183 13 60 14 168 63 241 110 20 12 104 62 186 110 295 173 361
214 399 254 22 22 38 43 35 45 -3 3 -17 -10 -31 -28z"/>
<path d="M2330 4105 c0 -2 18 -14 40 -25 22 -11 40 -18 40 -15 0 2 -18 14 -40
25 -22 11 -40 18 -40 15z"/>
<path d="M2507 3999 c7 -7 15 -10 18 -7 3 3 -2 9 -12 12 -14 6 -15 5 -6 -5z"/>
<path d="M2540 3986 c0 -3 9 -10 20 -16 11 -6 20 -8 20 -6 0 3 -9 10 -20 16
-11 6 -20 8 -20 6z"/>
<path d="M2620 3935 c0 -2 18 -14 40 -25 22 -11 40 -18 40 -15 0 2 -18 14 -40
25 -22 11 -40 18 -40 15z"/>
<path d="M2760 3857 c0 -7 72 -48 76 -44 2 2 -14 14 -36 26 -22 12 -40 20 -40
18z"/>
<path d="M2910 3765 c0 -2 18 -14 40 -25 22 -11 40 -18 40 -15 0 2 -18 14 -40
25 -22 11 -40 18 -40 15z"/>
<path d="M3030 3695 c0 -7 101 -57 106 -53 2 2 -21 16 -51 31 -30 15 -55 25
-55 22z"/>
<path d="M3268 3593 c6 -2 18 -2 25 0 6 3 1 5 -13 5 -14 0 -19 -2 -12 -5z"/>
<path d="M547 4173 c-13 -12 -7 -25 6 -14 18 14 27 4 27 -31 0 -28 -13 -38
-23 -18 -3 6 -4 5 -3 -2 5 -25 31 -13 34 15 5 38 -22 70 -41 50z"/>
<path d="M601 4144 c0 -11 3 -14 6 -6 3 7 2 16 -1 19 -3 4 -6 -2 -5 -13z"/>
<path d="M5930 4050 c-15 -16 -37 -30 -47 -30 -39 0 -83 -57 -83 -108 0 -45
38 -82 84 -82 30 0 39 6 66 45 62 90 85 166 58 193 -20 20 -49 14 -78 -18z
m78 -19 c4 -26 -39 -118 -75 -161 -14 -17 -34 -30 -45 -30 -18 0 -17 4 12 37
38 43 80 128 80 161 0 30 24 24 28 -7z"/>
<path d="M925 3815 c-29 -28 -32 -57 -10 -75 13 -11 22 -10 50 3 35 17 53 52
41 82 -8 23 -54 18 -81 -10z m75 -5 c0 -28 -35 -60 -65 -60 -31 0 -32 18 -4
54 25 32 69 36 69 6z"/>
<path d="M1358 3589 c-21 -11 -38 -22 -38 -24 0 -3 18 4 40 15 22 11 40 23 40
25 0 7 0 7 -42 -16z"/>
<path d="M1389 3530 c-21 -12 -43 -65 -35 -85 3 -8 17 -15 30 -15 43 0 74 68
44 98 -14 14 -18 14 -39 2z m41 -31 c0 -29 -18 -59 -36 -59 -23 0 -28 28 -10
55 20 30 46 33 46 4z"/>
<path d="M1234 3514 c-18 -14 -18 -14 6 -3 31 14 36 19 24 19 -6 0 -19 -7 -30
-16z"/>
<path d="M1425 3408 c-246 -148 -234 -142 -260 -128 -14 7 -28 10 -32 6 -18
-17 -32 -85 -29 -140 2 -34 1 -65 -1 -69 -3 -4 -17 -1 -31 8 -20 12 -18 9 7
-13 l34 -29 -8 -69 c-5 -48 -13 -74 -26 -87 -26 -25 -25 -72 3 -91 28 -20 107
-20 132 -1 24 18 25 68 4 92 -9 10 -18 39 -20 66 -3 39 0 46 12 42 10 -3 9 0
-3 9 -11 8 -18 25 -16 38 1 13 -1 30 -5 39 -4 9 -6 51 -4 94 l3 78 123 74 c68
40 146 85 173 99 27 15 49 30 49 35 0 12 10 17 -105 -53z m-290 -536 c-12 -12
-13 7 -7 88 l7 85 3 -84 c2 -46 0 -86 -3 -89z m-31 -38 c9 -3 16 -13 16 -21 0
-10 -6 -13 -16 -9 -9 3 -18 6 -20 6 -2 0 -4 7 -4 15 0 17 2 18 24 9z"/>
<path d="M1078 3424 c-38 -20 -36 -28 2 -9 17 9 30 18 30 20 0 7 -1 6 -32 -11z"/>
<path d="M1502 3395 c0 -16 2 -22 5 -12 2 9 2 23 0 30 -3 6 -5 -1 -5 -18z"/>
<path d="M1540 3336 c0 -3 9 -10 20 -16 11 -6 20 -8 20 -6 0 3 -9 10 -20 16
-11 6 -20 8 -20 6z"/>
<path d="M1038 3179 c-21 -11 -38 -21 -38 -23 0 -10 51 9 66 25 21 23 19 23
-28 -2z"/>
<path d="M1240 3035 c0 -2 18 -14 40 -25 22 -11 40 -18 40 -15 0 2 -18 14 -40
25 -22 11 -40 18 -40 15z"/>
<path d="M1337 2979 c7 -7 15 -10 18 -7 3 3 -2 9 -12 12 -14 6 -15 5 -6 -5z"/>
<path d="M1337 2919 c7 -7 15 -10 18 -7 3 3 -2 9 -12 12 -14 6 -15 5 -6 -5z"/>
<path d="M1378 2903 c7 -3 16 -2 19 1 4 3 -2 6 -13 5 -11 0 -14 -3 -6 -6z"/>
<path d="M924 2836 c11 -9 24 -16 30 -16 12 0 7 5 -24 19 -24 11 -24 11 -6 -3z"/>
<path d="M1021 2776 c10 -9 69 -36 69 -32 0 6 -55 36 -66 36 -4 0 -5 -2 -3 -4z"/>
<path d="M2470 2696 c0 -3 14 -12 30 -21 17 -9 30 -13 30 -11 0 3 -13 12 -30
21 -16 9 -30 13 -30 11z"/>
<path d="M1227 2659 c7 -7 15 -10 18 -7 3 3 -2 9 -12 12 -14 6 -15 5 -6 -5z"/>
<path d="M1320 2606 c0 -3 14 -12 30 -21 17 -9 30 -13 30 -11 0 3 -13 12 -30
21 -16 9 -30 13 -30 11z"/>
<path d="M1968 2594 c-38 -20 -36 -28 2 -9 17 9 30 18 30 20 0 7 -1 6 -32 -11z"/>
<path d="M2654 2586 c11 -9 24 -16 30 -16 12 0 7 5 -24 19 -24 11 -24 11 -6
-3z"/>
<path d="M1451 2526 c2 -2 15 -9 29 -15 24 -11 24 -11 6 3 -16 13 -49 24 -35
12z"/>
<path d="M2760 2526 c0 -3 14 -12 30 -21 17 -9 30 -13 30 -11 0 3 -13 12 -30
21 -16 9 -30 13 -30 11z"/>
<path d="M1820 2505 c-14 -8 -20 -14 -14 -15 5 0 19 7 30 15 24 18 16 19 -16
0z"/>
<path d="M5623 3460 c-36 -21 -53 -37 -53 -50 0 -24 54 -60 91 -60 31 0 109
54 109 75 0 11 -75 65 -91 65 -2 0 -28 -14 -56 -30z"/>
<path d="M5698 3339 c-21 -11 -38 -22 -38 -24 0 -3 18 4 40 15 22 11 40 23 40
25 0 7 0 7 -42 -16z"/>
<path d="M4814 3406 c-9 -22 4 -36 32 -36 21 0 25 4 22 23 -4 26 -45 37 -54
13z"/>
<path d="M5218 3363 c7 -3 16 -2 19 1 4 3 -2 6 -13 5 -11 0 -14 -3 -6 -6z"/>
<path d="M5956 3089 c-31 -36 -33 -69 -8 -92 25 -23 39 -21 67 8 32 31 33 78
3 99 -30 21 -32 21 -62 -15z"/>
<path d="M5837 3025 c-32 -22 -37 -31 -37 -65 0 -22 5 -40 10 -40 6 0 29 11
51 25 36 24 40 29 37 62 -2 20 -8 38 -13 40 -6 2 -27 -8 -48 -22z m14 -66
c-13 -11 -27 -17 -30 -13 -7 7 28 34 43 34 6 -1 0 -10 -13 -21z"/>
<path d="M5710 2948 c-11 -12 -20 -29 -20 -37 0 -10 5 -7 13 8 6 14 19 27 27
29 12 4 11 1 -2 -15 -10 -11 -18 -25 -18 -31 0 -7 -7 -12 -15 -12 -21 0 -19
-16 4 -39 24 -24 56 -17 78 15 21 32 20 74 -3 91 -25 18 -40 16 -64 -9z m66
-23 c8 -19 -22 -65 -41 -65 -20 0 -19 39 2 62 20 22 32 23 39 3z"/>
<path d="M5889 2889 c-46 -28 -105 -62 -131 -76 l-48 -26 0 -84 c0 -50 4 -83
10 -83 6 0 27 11 48 23 20 13 79 48 129 78 l93 54 0 77 c0 42 -4 79 -9 82 -5
3 -46 -17 -92 -45z m69 -69 c-2 -13 -7 -17 -15 -12 -10 6 -10 15 0 41 10 28
13 30 15 12 2 -11 2 -30 0 -41z m-14 -39 c6 -8 -187 -131 -206 -131 -14 0 -9
26 10 42 32 28 157 98 174 98 9 0 19 -4 22 -9z"/>
<path d="M5855 2624 c-71 -36 -125 -110 -151 -202 -20 -72 -13 -124 22 -159
52 -52 156 -6 224 98 42 65 65 149 54 195 -17 72 -83 102 -149 68z m-28 -132
c-9 -10 -23 -33 -31 -52 -11 -24 -15 -29 -16 -15 0 25 36 85 51 85 8 0 6 -7
-4 -18z m61 -25 c2 -20 -5 -36 -28 -59 -28 -28 -33 -29 -47 -16 -18 18 -12 44
19 83 25 32 52 29 56 -8z"/>
<path d="M1150 2556 c0 -2 8 -10 18 -17 15 -13 16 -12 3 4 -13 16 -21 21 -21
13z"/>
<path d="M1250 2445 c13 -14 26 -25 28 -25 3 0 -5 11 -18 25 -13 14 -26 25
-28 25 -3 0 5 -11 18 -25z"/>
<path d="M1200 2382 c0 -7 7 -15 15 -18 8 -4 15 -12 15 -20 0 -8 -7 -14 -15
-14 -22 0 -18 -18 8 -31 20 -11 21 -11 8 4 -18 22 1 23 34 1 39 -26 29 -2 -20
46 -25 24 -45 39 -45 32z"/>
<path d="M1335 2350 c10 -11 20 -20 23 -20 3 0 -3 9 -13 20 -10 11 -20 20 -23
20 -3 0 3 -9 13 -20z"/>
<path d="M571 2302 c13 -18 40 -42 59 -53 24 -14 27 -15 10 -2 -14 10 -41 33
-59 53 l-35 35 25 -33z"/>
<path d="M1518 2274 c-38 -20 -36 -28 2 -9 17 9 30 18 30 20 0 7 -1 6 -32 -11z"/>
<path d="M1304 2265 c1 -10 10 -22 20 -27 27 -15 28 -4 2 21 -20 19 -24 20
-22 6z"/>
<path d="M1400 2276 c0 -2 8 -10 18 -17 15 -13 16 -12 3 4 -13 16 -21 21 -21
13z"/>
<path d="M1445 2230 c3 -5 8 -10 11 -10 2 0 4 5 4 10 0 6 -5 10 -11 10 -5 0
-7 -4 -4 -10z"/>
<path d="M711 2196 c2 -2 15 -9 29 -15 24 -11 24 -11 6 3 -16 13 -49 24 -35
12z"/>
<path d="M777 2159 c7 -7 15 -10 18 -7 3 3 -2 9 -12 12 -14 6 -15 5 -6 -5z"/>
<path d="M850 2115 c0 -2 18 -14 40 -25 22 -11 40 -18 40 -15 0 2 -18 14 -40
25 -22 11 -40 18 -40 15z"/>
<path d="M1150 2106 c0 -2 7 -7 16 -10 8 -3 12 -2 9 4 -6 10 -25 14 -25 6z"/>
<path d="M995 2033 c6 -5 33 -22 60 -37 28 -15 41 -20 30 -11 -22 19 -106 63
-90 48z"/>
<path d="M1304 2016 c11 -9 24 -16 30 -16 12 0 7 5 -24 19 -24 11 -24 11 -6
-3z"/>
<path d="M1140 1946 c0 -3 25 -18 55 -34 30 -17 53 -26 50 -22 -5 8 -93 60
-101 60 -2 0 -4 -2 -4 -4z"/>
<path d="M1260 1875 c0 -2 23 -16 50 -30 28 -14 50 -23 50 -20 0 2 -22 16 -50
30 -27 14 -50 23 -50 20z"/>
<path d="M1380 1806 c0 -3 14 -12 30 -21 17 -9 30 -13 30 -11 0 3 -13 12 -30
21 -16 9 -30 13 -30 11z"/>
<path d="M1450 1766 c0 -2 7 -7 16 -10 8 -3 12 -2 9 4 -6 10 -25 14 -25 6z"/>
<path d="M1550 1705 c0 -2 23 -16 50 -30 28 -14 50 -23 50 -20 0 2 -22 16 -50
30 -27 14 -50 23 -50 20z"/>
<path d="M1690 1626 c0 -3 14 -12 30 -21 17 -9 30 -13 30 -11 0 3 -13 12 -30
21 -16 9 -30 13 -30 11z"/>
<path d="M1860 1526 c0 -3 14 -12 30 -21 17 -9 30 -13 30 -11 0 3 -13 12 -30
21 -16 9 -30 13 -30 11z"/>
<path d="M1960 1465 c0 -2 23 -16 50 -30 28 -14 50 -23 50 -20 0 2 -22 16 -50
30 -27 14 -50 23 -50 20z"/>
<path d="M2140 1359 c26 -17 70 -40 70 -35 0 5 -69 46 -78 46 -4 0 0 -5 8 -11z"/>
<path d="M2270 1285 c0 -2 18 -14 40 -25 22 -11 40 -18 40 -15 0 2 -18 14 -40
25 -22 11 -40 18 -40 15z"/>
<path d="M4432 1229 c-22 -26 -97 -77 -230 -155 -108 -64 -235 -140 -282 -169
-167 -102 -186 -112 -268 -139 -45 -15 -112 -32 -150 -36 l-67 -9 70 4 c106 6
209 44 347 126 222 131 262 155 366 215 130 75 216 136 238 169 27 41 12 37
-24 -6z"/>
<path d="M2395 1213 c6 -5 33 -22 60 -37 28 -15 41 -20 30 -11 -22 19 -106 63
-90 48z"/>
<path d="M2735 1131 c11 -13 33 -29 50 -37 18 -8 22 -9 11 -2 -10 7 -33 24
-50 38 -30 23 -30 24 -11 1z"/>
<path d="M2545 1123 c6 -5 37 -24 70 -42 33 -17 51 -25 40 -16 -23 19 -125 72
-110 58z"/>
<path d="M3752 1027 c-43 -26 -52 -37 -52 -59 0 -33 7 -34 40 -7 21 17 22 19
3 10 -12 -6 -25 -11 -29 -11 -13 0 20 32 49 47 27 14 29 14 24 -1 -6 -14 -3
-15 13 -6 20 11 27 44 12 54 -4 2 -31 -10 -60 -27z"/>
<path d="M2680 1045 c0 -2 18 -14 40 -25 22 -11 40 -18 40 -15 0 2 -18 14 -40
25 -22 11 -40 18 -40 15z"/>
<path d="M2870 1046 c0 -3 9 -10 20 -16 11 -6 20 -8 20 -6 0 3 -9 10 -20 16
-11 6 -20 8 -20 6z"/>
<path d="M2810 966 c0 -2 7 -7 16 -10 8 -3 12 -2 9 4 -6 10 -25 14 -25 6z"/>
<path d="M2850 946 c0 -3 14 -12 30 -21 17 -9 30 -13 30 -11 0 3 -13 12 -30
21 -16 9 -30 13 -30 11z"/>
<path d="M3140 885 c0 -8 81 -46 90 -43 4 2 -14 13 -41 25 -27 12 -49 20 -49
18z"/>
<path d="M2970 875 c0 -2 18 -14 40 -25 22 -11 40 -18 40 -15 0 2 -18 14 -40
25 -22 11 -40 18 -40 15z"/>
<path d="M3095 799 c6 -9 94 -43 99 -38 2 2 -20 13 -50 25 -29 12 -51 18 -49
13z"/>
<path d="M3192 2739 c-87 -51 -101 -63 -91 -75 19 -23 196 -124 217 -124 24 0
199 100 206 117 5 13 -47 50 -156 111 -32 18 -61 32 -65 32 -5 0 -54 -27 -111
-61z m201 -36 c45 -26 84 -49 87 -51 5 -4 -6 -12 -88 -58 l-54 -32 -79 46
c-44 26 -78 51 -76 56 3 8 111 82 125 85 1 1 39 -20 85 -46z"/>
<path d="M2917 1669 c7 -7 15 -10 18 -7 3 3 -2 9 -12 12 -14 6 -15 5 -6 -5z"/>
<path d="M3563 1629 c-13 -5 -23 -15 -23 -24 0 -13 4 -14 20 -5 12 6 30 8 40
5 11 -4 20 -2 20 4 0 17 -34 29 -57 20z"/>
<path d="M3010 1616 c0 -3 14 -12 30 -21 17 -9 30 -13 30 -11 0 3 -13 12 -30
21 -16 9 -30 13 -30 11z"/>
<path d="M3645 1600 c-3 -5 -4 -10 -1 -10 2 0 11 -2 19 -5 8 -4 14 0 14 10 0
17 -22 21 -32 5z"/>
<path d="M3552 1574 c-25 -17 -30 -39 -8 -31 11 4 13 1 9 -10 -6 -15 -5 -15
16 -1 13 9 29 26 37 37 14 20 13 21 -8 21 -13 0 -34 -7 -46 -16z"/>
<path d="M3130 1545 c0 -7 81 -47 86 -43 2 3 -17 14 -41 26 -25 12 -45 20 -45
17z"/>
<path d="M3436 1484 c-4 -10 -14 -14 -26 -11 -23 6 -27 -8 -5 -17 22 -8 41 2
42 24 2 24 -3 26 -11 4z"/>
<path d="M4720 1535 c0 -2 18 -14 40 -25 22 -11 40 -18 40 -15 0 2 -18 14 -40
25 -22 11 -40 18 -40 15z"/>
<path d="M4162 2024 l-71 -45 26 -42 c14 -23 27 -43 28 -45 2 -2 94 50 134 77
12 7 9 17 -16 54 l-30 45 -71 -44z m92 -9 c9 -13 16 -28 16 -33 0 -8 -105 -72
-118 -72 -4 0 -15 14 -25 32 -15 25 -16 33 -5 40 113 68 110 67 132 33z"/>
<path d="M3171 1868 c-16 -25 -9 -32 24 -24 30 8 32 17 7 33 -15 9 -21 7 -31
-9z"/>
<path d="M3298 1844 c-32 -19 -58 -39 -58 -44 0 -17 46 -11 71 9 13 10 39 26
57 35 17 9 32 21 32 26 0 20 -46 8 -102 -26z"/>
<path d="M3238 1853 c7 -3 16 -2 19 1 4 3 -2 6 -13 5 -11 0 -14 -3 -6 -6z"/>
<path d="M4041 1731 c-8 -5 -20 -7 -28 -4 -7 3 -13 0 -13 -5 0 -21 18 -22 41
-2 25 20 25 26 0 11z"/>
<path d="M3985 1551 c-6 -5 -19 -11 -30 -14 -19 -4 -19 -5 1 -6 12 0 27 6 34
14 14 16 10 20 -5 6z"/>
<path d="M3921 1473 c13 -15 11 -16 -13 -9 l-28 6 0 -109 c0 -98 2 -110 19
-116 45 -14 51 0 51 120 0 94 -3 114 -16 119 -25 9 -27 7 -13 -11z m-11 -124
c0 -53 -4 -89 -10 -89 -6 0 -10 39 -10 96 0 61 4 93 10 89 6 -3 10 -46 10 -96z
m30 6 c0 -57 -4 -95 -10 -95 -11 0 -14 172 -3 183 12 13 13 7 13 -88z"/>
<path d="M3748 1220 c-37 -23 -48 -36 -48 -55 0 -14 5 -25 10 -25 6 0 10 8 8
17 -3 18 54 57 74 50 7 -2 -5 -13 -27 -25 -22 -12 -36 -21 -31 -22 4 0 26 10
47 22 28 15 39 28 39 45 0 30 -15 29 -72 -7z"/>
</g>
</svg>
