<svg id="visual" viewBox="0 0 900 600" width="900" height="600" xmlns="http://www.w3.org/2000/svg" xmlns:xlink="http://www.w3.org/1999/xlink" version="1.1"><g transform="translate(474.3760443983826 288.43563637428474)"><path d="M110.2 -181.4C152 -166.7 201.6 -155.8 215.8 -126.3C229.9 -96.7 208.7 -48.3 208 -0.4C207.3 47.5 227 95 219.4 135.8C211.7 176.7 176.6 210.9 135.5 227.6C94.3 244.4 47.2 243.7 -0.4 244.4C-48 245.1 -96 247.3 -134.4 228.9C-172.8 210.6 -201.6 171.8 -227.6 130.2C-253.6 88.7 -276.8 44.3 -268 5.1C-259.2 -34.2 -218.4 -68.3 -188.6 -103.4C-158.9 -138.5 -140.2 -174.5 -110.6 -196.2C-81 -218 -40.5 -225.5 -3.2 -220C34.2 -214.5 68.3 -196 110.2 -181.4" fill="#BB004B"></path></g></svg>