<!--?xml version="1.0" standalone="no"?-->
<svg id="sw-js-blob-svg" viewBox="0 0 100 100" xmlns="http://www.w3.org/2000/svg">
    <defs>
        <linearGradient id="sw-gradient" x1="0" x2="1" y1="1" y2="0">
            <stop id="stop1" stop-color="rgba(248, 117, 55, 1)" offset="0%"></stop>
            <stop id="stop2" stop-color="rgba(251, 168, 31, 1)" offset="100%"></stop>
        </linearGradient>
    </defs>
    <path fill="url(#sw-gradient)"
        d="M19.3,-30.9C25.8,-29.7,32.4,-26.1,35.2,-20.5C38,-15,37.2,-7.5,35.1,-1.2C33,5.1,29.7,10.2,27.5,16.8C25.3,23.5,24.2,31.8,19.8,35.5C15.4,39.2,7.7,38.4,1,36.6C-5.7,34.8,-11.3,32.1,-15.8,28.5C-20.3,24.8,-23.7,20.2,-27.7,15.3C-31.8,10.4,-36.6,5.2,-38.6,-1.2C-40.7,-7.6,-40,-15.1,-36.5,-21C-32.9,-26.8,-26.5,-30.8,-20,-32C-13.4,-33.1,-6.7,-31.4,-0.2,-31.1C6.4,-30.8,12.8,-32.1,19.3,-30.9Z"
        width="100%" height="100%" transform="translate(50 50)" stroke-width="0"
        style="transition: all 0.3s ease 0s;"></path>
</svg>